<svg width="24" height="24" viewBox="0 0 24 24" fill="none" xmlns="http://www.w3.org/2000/svg">
<path d="M9.65491 8.96477L7.25732 11.3483L11.2643 15.3285L17.3421 9.28615L14.9445 6.90259L11.2643 10.5614L9.65491 8.96477Z" fill="#FFD470"/>
<path d="M21.1257 0.256592C20.7201 0.339965 20.303 0.256592 19.8857 0.256592C17.5759 0.256592 14.4516 0.256592 14.4516 0.256592H13.9816H10.0186H9.54863C9.54863 0.256592 6.42418 0.256592 4.11441 0.256592C3.69712 0.256592 3.27994 0.339965 2.87453 0.256592H0.835449V13.7723C0.835449 16.1352 2.63051 18.4768 6.32325 20.9309C8.78187 22.5648 11.2067 23.6478 11.3086 23.6931L12 23.9999L12.6914 23.6931C12.7933 23.6478 15.2182 22.5648 17.6768 20.9309C21.3696 18.4768 23.1647 16.1352 23.1647 13.7723V0.256592H21.1257ZM19.774 13.7722C19.774 14.1713 19.4893 15.6633 15.8266 18.1057C14.3478 19.0918 12.8457 19.8726 12 20.2873C11.1541 19.8725 9.65227 19.0917 8.17357 18.1057C4.5109 15.6633 4.22619 14.1712 4.22619 13.7722V3.62681C7.39404 3.59052 12 3.62681 12 3.62681C12 3.62681 16.606 3.5904 19.774 3.62681V13.7722Z" fill="white"/>
</svg>
